<?xml version="1.0" encoding="UTF-8"?><svg id="Layer_2" xmlns="http://www.w3.org/2000/svg" viewBox="0 0 323.56 291.61"><defs><style>.cls-1{fill:#a3b847;}.cls-2{fill:#648362;}.cls-3{fill:#8dc63f;}.cls-4{fill:none;}.cls-5{fill:#dbe11f;}.cls-6{fill:#231f20;}.cls-7{fill:#ffd200;}</style></defs><g id="Layer_1-2"><g><g><path class="cls-4" d="M110.79,94.43c-17.64,4.15-32.05,18.03-35.53,37.5h63.77c.76-5.39,2.28-10.56,4.47-15.39-13.24-3.8-24.71-11.66-32.71-22.1Z"/><path class="cls-4" d="M161.68,119.09c-1.04,0-2.08-.03-3.12-.07-1.97,3.95-3.43,8.27-4.25,12.91h14.96c-.89-4.62-2.39-8.95-4.41-12.93-1.06,.05-2.12,.09-3.18,.09Z"/><path class="cls-4" d="M179.67,116.54c2.28,4.9,3.91,10.07,4.76,15.39h63.89c-3.67-19.01-17.58-33.27-35.87-37.5-8.2,10.7-19.81,18.38-32.77,22.11Z"/><path class="cls-4" d="M121.94,186.08c10.95,0,21.59-3.51,29.86-9.72-7.27-8.76-12.01-19.52-13.09-31.36h-63.44c1.32,22.61,23.34,41.08,46.67,41.08Z"/><path class="cls-4" d="M161.46,13.07c-22.45,0-42.49,15.35-46.67,38.8h94c-4.4-22.82-23.56-38.8-47.33-38.8Z"/><path class="cls-4" d="M194.63,93.55c-8.61,1.13-16.65,4.54-23.29,9.77,.4,.49,.8,.99,1.18,1.49,8.37-1.83,16.07-5.71,22.11-11.26Z"/><path class="cls-4" d="M151.87,103.18c-6.3-4.9-13.89-8.21-22.27-9.47,5.94,5.23,13.23,9.1,21.05,11,.4-.52,.81-1.02,1.22-1.53Z"/><path class="cls-3" d="M171.34,103.31c-.88,.69-1.74,1.42-2.57,2.17,1.26-.18,2.51-.41,3.75-.68-.39-.5-.78-1-1.18-1.49Z"/><path class="cls-3" d="M151.8,176.36c-8.27,6.22-18.91,9.72-29.86,9.72-23.34,0-45.35-18.46-46.67-41.08h63.44c-.16-1.71-.25-3.44-.25-5.19,0-2.67,.21-5.3,.57-7.88h-63.77c3.47-19.47,17.88-33.35,35.53-37.5-2.77-3.62-5.13-7.54-6.98-11.72-25.28,7.52-44.39,30.25-44.39,57.11,0,33.2,28.62,59.34,62.74,59.34,14.42,0,28.35-4.81,39.45-13.34-3.63-2.79-6.91-5.97-9.81-9.45Z"/><path class="cls-3" d="M129.59,93.71c8.38,1.26,15.98,4.57,22.27,9.47,2.86-3.47,6.1-6.65,9.67-9.45-10.68-8.42-24.33-13.67-39.6-13.67-.99,0-1.98,.03-2.96,.07,2.59,5.11,6.23,9.71,10.62,13.58Z"/><path class="cls-3" d="M171.78,175.95c4-4.9,7.28-10.48,9.6-16.63h-16.29c-.89,2.24-2.01,4.36-3.28,6.36,2.75,3.87,6.13,7.34,9.97,10.28Z"/><path class="cls-3" d="M164.86,119c2.01,3.98,3.52,8.31,4.41,12.93h15.16c-.85-5.32-2.48-10.49-4.76-15.39-4.79,1.38-9.76,2.21-14.81,2.46Z"/><path class="cls-2" d="M154.61,105.49c-.88-.8-1.8-1.57-2.74-2.3-.41,.5-.82,1.01-1.22,1.53,1.31,.32,2.63,.57,3.96,.78Z"/><path class="cls-2" d="M248.31,131.93h-63.89c.46,2.87,.7,5.78,.7,8.71,0,1.45-.22,2.9-.22,4.36h79.04c0-1.45,.22-2.9,.22-4.36,0-25.7-18.24-50-44.72-57.9-1.9,4.21-4.26,8.12-7,11.69,18.29,4.23,32.2,18.48,35.87,37.5Z"/><path class="cls-2" d="M161.61,185.81c10.87,8.37,24.71,13.34,39.6,13.34,25.76,0,49.97-15.35,59.22-39.84h-16.29c-6.6,16.6-24.44,26.76-43.15,26.76-10.62,0-20.96-3.83-29.2-10.13-3.01,3.68-6.43,6.98-10.17,9.86Z"/><path class="cls-2" d="M171.34,103.31c6.64-5.23,14.68-8.64,23.29-9.77,4.08-3.75,7.37-8.25,9.58-13.4-1.07-.05-2.14-.08-3.23-.08-14.75,0-28.56,5.13-39.44,13.67,3.63,2.86,6.91,6.08,9.8,9.59Z"/><path class="cls-2" d="M138.71,145c1.08,11.84,5.82,22.6,13.09,31.36,3.95-2.97,7.36-6.55,10-10.68-4.31-6.08-7.06-13.14-7.5-20.67h-15.6Z"/><path class="cls-2" d="M158.56,119.02c-5.2-.24-10.24-1.1-15.06-2.48-2.19,4.84-3.71,10.01-4.47,15.39h15.28c.83-4.64,2.29-8.96,4.25-12.91Z"/><path class="cls-1" d="M184.42,131.93h-45.39c-.37,2.58-.57,5.21-.57,7.88,0,1.75,.1,3.48,.25,5.19h46.19c0-1.45,.22-2.9,.22-4.36,0-2.93-.24-5.84-.7-8.71Z"/><path class="cls-1" d="M151.8,176.36c2.9,3.49,6.18,6.66,9.81,9.45,3.74-2.88,7.16-6.18,10.17-9.86-3.84-2.93-7.23-6.4-9.97-10.28-2.64,4.13-6.05,7.71-10,10.68Z"/><path class="cls-2" d="M151.87,103.18c.94,.73,1.86,1.5,2.74,2.3,2.26,.35,4.55,.53,6.85,.53,2.46,0,4.91-.19,7.32-.53,.83-.76,1.69-1.48,2.57-2.17-2.88-3.51-6.17-6.73-9.8-9.59-3.57,2.8-6.81,5.98-9.67,9.45Z"/><path class="cls-7" d="M114.79,64.94h109.63c0-1.45,.22-2.9,.22-4.36,0-31.33-27.08-60.58-63.18-60.58-33.68,0-62.52,26.76-62.52,59.75,0,8.18,1.74,15.92,4.87,22.96,4.86-1.45,9.94-2.33,15.17-2.57-2.38-4.71-3.87-9.83-4.19-15.2ZM161.46,13.07c23.78,0,42.93,15.98,47.33,38.8H114.79c4.18-23.44,24.22-38.8,46.67-38.8Z"/><path class="cls-7" d="M179.67,116.54c12.96-3.73,24.57-11.41,32.77-22.11-3.66-.85-7.5-1.3-11.46-1.3-2.14,0-4.26,.14-6.35,.42-6.03,5.55-13.74,9.43-22.11,11.26,2.82,3.66,5.22,7.6,7.15,11.74Z"/><path class="cls-7" d="M143.5,116.54c1.91-4.21,4.32-8.17,7.14-11.83-7.82-1.9-15.11-5.77-21.05-11-2.49-.37-5.04-.58-7.65-.58-3.81,0-7.54,.45-11.15,1.3,8,10.45,19.47,18.3,32.71,22.1Z"/><path class="cls-7" d="M164.86,119c-.94-1.86-2-3.65-3.16-5.35-1.15,1.7-2.2,3.49-3.14,5.36,1.03,.05,2.07,.07,3.12,.07s2.12-.04,3.18-.09Z"/><path class="cls-5" d="M161.7,113.65c1.16,1.7,2.22,3.49,3.16,5.35,5.05-.25,10.02-1.08,14.81-2.46-1.93-4.14-4.32-8.08-7.15-11.74-1.24,.27-2.49,.5-3.75,.68-2.65,2.42-5.03,5.15-7.07,8.16Z"/><path class="cls-5" d="M121.94,93.13c2.61,0,5.17,.2,7.65,.58-4.39-3.86-8.03-8.47-10.62-13.58-5.22,.24-10.31,1.13-15.17,2.57,1.86,4.18,4.22,8.1,6.98,11.72,3.6-.85,7.34-1.3,11.15-1.3Z"/><path class="cls-1" d="M143.5,116.54c4.82,1.38,9.86,2.24,15.06,2.48,.93-1.87,1.98-3.66,3.14-5.36-2.05-3-4.43-5.74-7.09-8.17-1.33-.2-2.66-.46-3.96-.78-2.82,3.65-5.23,7.61-7.14,11.83Z"/><path class="cls-1" d="M194.63,93.55c2.09-.27,4.21-.42,6.35-.42,3.97,0,7.8,.45,11.46,1.3,2.74-3.57,5.09-7.48,7-11.69-4.83-1.44-9.92-2.34-15.23-2.6-2.21,5.15-5.51,9.66-9.58,13.4Z"/><path class="cls-1" d="M161.7,113.65c2.05-3.02,4.43-5.75,7.07-8.16-2.41,.34-4.85,.53-7.32,.53-2.3,0-4.59-.19-6.85-.53,2.66,2.42,5.04,5.16,7.09,8.17Z"/></g><g><path class="cls-6" d="M.86,287.76v-8.09H0v-1.67H.86v-.44c0-1.87,1.32-2.84,3.14-2.84h.41v1.67c-1.2,0-1.71,.42-1.71,1.15v.46h1.71v1.67h-1.71v8.09H.86Z"/><path class="cls-6" d="M10.03,288.01c-2.75,0-5.2-2.34-5.2-5.09,0-2.98,2.34-5.18,5.34-5.18,2.7,0,5.23,2.12,5.2,5.22-.04,2.61-2.22,5.06-5.34,5.06Zm.05-8.6c-1.83,0-3.42,1.55-3.42,3.45s1.53,3.47,3.38,3.47,3.49-1.52,3.49-3.49-1.53-3.44-3.45-3.44Z"/><path class="cls-6" d="M17.24,287.76v-9.76h1.71v.88h.04c.44-.65,1.2-1.07,2.48-1.15v1.89c-1.59,.05-2.4,1.02-2.4,2.66v5.48h-1.83Z"/><path class="cls-6" d="M29.42,283.68c.42,1.62,1.71,2.66,3.21,2.66,1.15,0,2.22-.6,2.78-1.64h1.83c-.76,2.01-2.59,3.31-4.69,3.31-2.75,0-4.97-2.43-4.97-5.04,0-3.08,2.33-5.23,4.92-5.23,2.87,0,5.06,2.22,5.06,5.02,0,.3,0,.58-.05,.92h-8.09Zm6.31-1.41c-.14-1.66-1.6-2.85-3.17-2.85s-3,1.18-3.14,2.85h6.31Z"/><path class="cls-6" d="M46.22,287.76v-5.32c0-2.06-.81-3.03-2.43-3.03s-2.57,1.18-2.57,3.01v5.34h-1.83v-9.76h1.71v1.04h.04c.72-.93,1.73-1.3,2.86-1.3,2.34,0,4.07,1.48,4.07,4.18v5.85h-1.83Z"/><path class="cls-6" d="M52.79,287.76l-3.88-9.76h1.96l2.56,6.98h.04l2.5-6.98h1.96l-3.84,9.76h-1.29Z"/><path class="cls-6" d="M59.33,276.87v-2.15h1.83v2.15h-1.83Zm0,10.89v-9.76h1.83v9.76h-1.83Z"/><path class="cls-6" d="M63.53,287.76v-9.76h1.71v.88h.04c.44-.65,1.2-1.07,2.48-1.15v1.89c-1.59,.05-2.4,1.02-2.4,2.66v5.48h-1.83Z"/><path class="cls-6" d="M73.72,288.01c-2.75,0-5.2-2.34-5.2-5.09,0-2.98,2.34-5.18,5.34-5.18,2.7,0,5.23,2.12,5.2,5.22-.04,2.61-2.22,5.06-5.34,5.06Zm.05-8.6c-1.83,0-3.42,1.55-3.42,3.45s1.53,3.47,3.38,3.47,3.49-1.52,3.49-3.49-1.53-3.44-3.45-3.44Z"/><path class="cls-6" d="M87.75,287.76v-5.32c0-2.06-.81-3.03-2.43-3.03s-2.57,1.18-2.57,3.01v5.34h-1.83v-9.76h1.71v1.04h.04c.72-.93,1.73-1.3,2.86-1.3,2.34,0,4.07,1.48,4.07,4.18v5.85h-1.83Z"/><path class="cls-6" d="M104.86,287.76v-5.46c0-1.85-.78-2.89-2.31-2.89-1.62,0-2.33,.9-2.33,2.85v5.5h-1.83v-5.67c0-1.92-.9-2.68-2.22-2.68-1.62,0-2.41,.95-2.41,2.87v5.48h-1.83v-9.76h1.69v1.06h.04c.79-.93,1.53-1.32,2.8-1.32s2.54,.62,3.03,1.64c.71-1.11,1.67-1.64,3.23-1.64,2.54,0,3.98,1.59,3.98,4.11v5.92h-1.83Z"/><path class="cls-6" d="M110.39,283.68c.42,1.62,1.71,2.66,3.21,2.66,1.15,0,2.22-.6,2.78-1.64h1.83c-.76,2.01-2.59,3.31-4.69,3.31-2.75,0-4.97-2.43-4.97-5.04,0-3.08,2.33-5.23,4.92-5.23,2.87,0,5.06,2.22,5.06,5.02,0,.3,0,.58-.05,.92h-8.09Zm6.31-1.41c-.14-1.66-1.6-2.85-3.17-2.85s-3,1.18-3.14,2.85h6.31Z"/><path class="cls-6" d="M127.18,287.76v-5.32c0-2.06-.81-3.03-2.43-3.03s-2.57,1.18-2.57,3.01v5.34h-1.83v-9.76h1.71v1.04h.04c.72-.93,1.73-1.3,2.86-1.3,2.34,0,4.07,1.48,4.07,4.18v5.85h-1.83Z"/><path class="cls-6" d="M131.57,287.76v-8.09h-1.32v-1.67h1.32v-3.28h1.83v3.28h1.6v1.67h-1.6v8.09h-1.83Z"/><path class="cls-6" d="M135.63,288.91c.48-.18,.65-.39,.65-1.15h-.65v-2.15h1.83v2.03c0,1.3-.58,2.11-1.83,2.36v-1.09Z"/><path class="cls-6" d="M145.46,283.68c.42,1.62,1.71,2.66,3.21,2.66,1.15,0,2.22-.6,2.79-1.64h1.83c-.76,2.01-2.59,3.31-4.69,3.31-2.75,0-4.97-2.43-4.97-5.04,0-3.08,2.33-5.23,4.92-5.23,2.87,0,5.06,2.22,5.06,5.02,0,.3,0,.58-.05,.92h-8.09Zm6.31-1.41c-.14-1.66-1.6-2.85-3.17-2.85s-3,1.18-3.14,2.85h6.31Z"/><path class="cls-6" d="M162.26,287.76v-5.32c0-2.06-.81-3.03-2.43-3.03s-2.57,1.18-2.57,3.01v5.34h-1.83v-9.76h1.71v1.04h.04c.72-.93,1.73-1.3,2.85-1.3,2.34,0,4.07,1.48,4.07,4.18v5.85h-1.83Z"/><path class="cls-6" d="M167.78,283.68c.42,1.62,1.71,2.66,3.21,2.66,1.15,0,2.22-.6,2.79-1.64h1.83c-.76,2.01-2.59,3.31-4.69,3.31-2.75,0-4.97-2.43-4.97-5.04,0-3.08,2.33-5.23,4.92-5.23,2.87,0,5.06,2.22,5.06,5.02,0,.3,0,.58-.05,.92h-8.09Zm6.31-1.41c-.14-1.66-1.6-2.85-3.17-2.85s-3,1.18-3.14,2.85h6.31Z"/><path class="cls-6" d="M177.76,287.76v-9.76h1.71v.88h.04c.44-.65,1.2-1.07,2.48-1.15v1.89c-1.59,.05-2.4,1.02-2.4,2.66v5.48h-1.83Z"/><path class="cls-6" d="M191.33,286.48c-.76,1.02-1.97,1.53-3.37,1.53-2.8,0-5.22-2.42-5.22-5.06,0-2.94,2.29-5.22,5.23-5.22,1.27,0,2.61,.53,3.38,1.39v-1.13h1.83v8.48c0,3.17-1.96,5.13-5.27,5.13-2.24,0-4-1.18-4.83-3.08h2.04c.69,.97,1.6,1.41,2.8,1.41,2.24,0,3.42-1.22,3.42-3.45h-.04Zm.04-3.6c0-2.29-1.75-3.47-3.44-3.47-1.82,0-3.35,1.57-3.35,3.47s1.55,3.45,3.37,3.45c2.13,0,3.42-1.87,3.42-3.45Z"/><path class="cls-6" d="M197.01,291.03l1.43-3.46-3.9-9.57h1.97l2.87,7.58,2.94-7.58h1.97l-5.39,13.02h-1.9Z"/><path class="cls-6" d="M218.05,285.72c-1.04,1.57-2.29,2.29-3.79,2.29-2.2,0-3.98-1.69-3.98-3.9,0-1.6,.88-3,2.5-3.72-.97-.97-1.25-1.69-1.25-2.59,0-1.82,1.36-3.33,3.3-3.33,1.83,0,3.24,1.48,3.24,3.31,0,1.39-.76,2.45-2.19,3.14l1.73,1.69,1.43-2.87h2.06l-2.13,4.3,2.63,2.68-1.27,1.29-2.27-2.29Zm-4.02-4.04c-1.11,.37-1.85,1.2-1.85,2.41s.86,2.17,2.08,2.17c1,0,1.83-.55,2.52-1.87l-2.75-2.71Zm2.13-3.95c0-.83-.58-1.52-1.36-1.52s-1.38,.67-1.38,1.59c0,.62,.35,1.16,1.11,1.85,1.25-.63,1.62-1.15,1.62-1.92Z"/><path class="cls-6" d="M229.46,283.68c.42,1.62,1.71,2.66,3.21,2.66,1.15,0,2.22-.6,2.79-1.64h1.83c-.76,2.01-2.59,3.31-4.69,3.31-2.75,0-4.97-2.43-4.97-5.04,0-3.08,2.33-5.23,4.92-5.23,2.87,0,5.06,2.22,5.06,5.02,0,.3,0,.58-.05,.92h-8.09Zm6.31-1.41c-.14-1.66-1.6-2.85-3.17-2.85s-3,1.18-3.14,2.85h6.31Z"/><path class="cls-6" d="M248.74,284.54c-.78,2.2-2.64,3.47-4.81,3.47-2.8,0-5-2.26-5-5.04,0-2.94,2.13-5.23,4.99-5.23,2.22,0,4.25,1.39,4.83,3.51h-2.03c-.55-1.15-1.43-1.83-2.75-1.83-1.92,0-3.21,1.46-3.21,3.45s1.32,3.47,3.17,3.47c1.25,0,2.26-.67,2.77-1.8h2.04Z"/><path class="cls-6" d="M255.18,288.01c-2.75,0-5.2-2.34-5.2-5.09,0-2.98,2.34-5.18,5.34-5.18,2.7,0,5.23,2.12,5.2,5.22-.04,2.61-2.22,5.06-5.34,5.06Zm.05-8.6c-1.83,0-3.42,1.55-3.42,3.45s1.53,3.47,3.38,3.47,3.49-1.52,3.49-3.49-1.53-3.44-3.45-3.44Z"/><path class="cls-6" d="M269.21,287.76v-5.32c0-2.06-.81-3.03-2.43-3.03s-2.57,1.18-2.57,3.01v5.34h-1.83v-9.76h1.71v1.04h.04c.72-.93,1.73-1.3,2.85-1.3,2.34,0,4.07,1.48,4.07,4.18v5.85h-1.83Z"/><path class="cls-6" d="M278.08,288.01c-2.75,0-5.2-2.34-5.2-5.09,0-2.98,2.34-5.18,5.34-5.18,2.7,0,5.23,2.12,5.2,5.22-.04,2.61-2.22,5.06-5.34,5.06Zm.05-8.6c-1.83,0-3.42,1.55-3.42,3.45s1.53,3.47,3.38,3.47,3.49-1.52,3.49-3.49-1.53-3.44-3.45-3.44Z"/><path class="cls-6" d="M298.23,287.76v-5.46c0-1.85-.78-2.89-2.31-2.89-1.62,0-2.33,.9-2.33,2.85v5.5h-1.83v-5.67c0-1.92-.9-2.68-2.22-2.68-1.62,0-2.41,.95-2.41,2.87v5.48h-1.83v-9.76h1.69v1.06h.04c.79-.93,1.53-1.32,2.8-1.32s2.54,.62,3.03,1.64c.71-1.11,1.67-1.64,3.23-1.64,2.54,0,3.98,1.59,3.98,4.11v5.92h-1.83Z"/><path class="cls-6" d="M302.41,276.87v-2.15h1.83v2.15h-1.83Zm0,10.89v-9.76h1.83v9.76h-1.83Z"/><path class="cls-6" d="M315.91,284.54c-.78,2.2-2.64,3.47-4.81,3.47-2.8,0-5-2.26-5-5.04,0-2.94,2.13-5.23,4.99-5.23,2.22,0,4.25,1.39,4.83,3.51h-2.03c-.55-1.15-1.43-1.83-2.75-1.83-1.92,0-3.21,1.46-3.21,3.45s1.32,3.47,3.17,3.47c1.25,0,2.26-.67,2.77-1.8h2.04Z"/><path class="cls-6" d="M321.5,280.59c-.09-.71-.49-1.18-1.25-1.18-.71,0-1.15,.48-1.15,1.04,0,.83,.85,1.07,1.82,1.37,1.37,.42,2.64,1.25,2.64,3.07s-1.38,3.12-3.28,3.12c-1.76,0-3.45-1.2-3.45-3.46h1.83c.09,1.18,.69,1.78,1.66,1.78,.85,0,1.41-.55,1.41-1.34,0-.67-.51-1.11-1.66-1.48-2.4-.76-2.8-1.8-2.8-2.91,0-1.73,1.46-2.87,3.07-2.87s2.94,1.13,3,2.86h-1.83Z"/></g><g><path class="cls-6" d="M13.03,264.82l-8.59-12.07h-.07v12.07H.57v-26.04H8.91c6.26,0,9.04,3.31,9.04,8.66,0,4.96-3.8,7.56-7.46,7.67l7.28,9.71h-4.75Zm-5.88-12.6c4.43,0,7-1.72,7-5.1,0-2.99-2.39-4.86-5.77-4.86H4.37v9.96h2.78Z"/><path class="cls-6" d="M21.47,264.82v-26.04h14.04v3.48h-10.24v7.67h10.24v3.48h-10.24v7.92h10.24v3.48h-14.04Z"/><path class="cls-6" d="M49.8,245.54c0-2.36-1.51-3.76-3.66-3.76-1.83,0-3.48,1.65-3.48,3.55s1.23,2.88,3.77,3.69c5.63,1.79,7.71,3.91,7.71,8.41s-3.38,7.88-7.99,7.88-7.95-3.31-8.02-8.2h3.8c.04,2.82,1.69,4.71,4.22,4.71s4.19-1.83,4.19-4.4c0-1.9-.84-3.1-3.62-4.05-6.44-2.18-7.85-4.29-7.85-7.99,0-3.98,3.27-7.11,7.28-7.11,4.29,0,7.39,2.71,7.46,7.25h-3.8Z"/><path class="cls-6" d="M57.33,264.82v-26.04h14.04v3.48h-10.24v7.67h10.24v3.48h-10.24v7.92h10.24v3.48h-14.04Z"/><path class="cls-6" d="M92.94,264.82l-2.89-7.67h-9.36l-2.89,7.67h-4.01l9.89-26.04h3.41l9.89,26.04h-4.05Zm-7.5-21.11h-.07l-3.34,9.96h6.72l-3.31-9.96Z"/><path class="cls-6" d="M112.15,264.82l-8.59-12.07h-.07v12.07h-3.8v-26.04h8.34c6.26,0,9.04,3.31,9.04,8.66,0,4.96-3.8,7.56-7.46,7.67l7.28,9.71h-4.75Zm-5.88-12.6c4.43,0,7-1.72,7-5.1,0-2.99-2.39-4.86-5.77-4.86h-4.01v9.96h2.78Z"/><path class="cls-6" d="M144.84,258.38c-2.64,4.54-6.83,6.93-12.03,6.93-7.21,0-13.16-6.47-13.16-13.41,0-7.85,6.19-13.62,13.2-13.62,4.93,0,9.54,2.25,12.17,7.14h-4.57c-1.97-2.29-4.26-3.66-7.32-3.66-5.45,0-9.68,4.61-9.68,9.78,0,5.45,4.12,10.27,9.46,10.27,2.71,0,5.14-1.06,7.25-3.45h4.68Z"/><path class="cls-6" d="M163,264.82v-11.33h-10.73v11.33h-3.8v-26.04h3.8v11.22h10.73v-11.22h3.8v26.04h-3.8Z"/><path class="cls-6" d="M182.43,264.82v-26.04h3.8v26.04h-3.8Z"/><path class="cls-6" d="M208.22,264.82l-12.88-20.13h-.07v20.13h-3.8v-26.04h4.15l12.67,19.81h.07v-19.81h3.8v26.04h-3.94Z"/><path class="cls-6" d="M227.12,245.54c0-2.36-1.51-3.76-3.66-3.76-1.83,0-3.48,1.65-3.48,3.55s1.23,2.88,3.76,3.69c5.63,1.79,7.71,3.91,7.71,8.41s-3.38,7.88-7.99,7.88-7.95-3.31-8.02-8.2h3.8c.04,2.82,1.69,4.71,4.22,4.71s4.19-1.83,4.19-4.4c0-1.9-.84-3.1-3.62-4.05-6.44-2.18-7.85-4.29-7.85-7.99,0-3.98,3.27-7.11,7.28-7.11,4.29,0,7.39,2.71,7.46,7.25h-3.8Z"/><path class="cls-6" d="M237.6,264.82v-22.55h-5v-3.48h13.79v3.48h-5v22.55h-3.8Z"/><path class="cls-6" d="M249.32,264.82v-26.04h3.8v26.04h-3.8Z"/><path class="cls-6" d="M260.97,264.82v-22.55h-5v-3.48h13.79v3.48h-5v22.55h-3.8Z"/><path class="cls-6" d="M286.27,238.79h3.8v17.8c0,5.45-3.84,8.73-8.73,8.73s-8.73-3.31-8.73-8.73v-17.8h3.8v17.52c0,3.24,1.83,5.52,4.93,5.52s4.93-2.32,4.93-5.52v-17.52Z"/><path class="cls-6" d="M297.92,264.82v-22.55h-5v-3.48h13.79v3.48h-5v22.55h-3.8Z"/><path class="cls-6" d="M309.28,264.82v-26.04h14.04v3.48h-10.24v7.67h10.24v3.48h-10.24v7.92h10.24v3.48h-14.04Z"/></g><g><path class="cls-6" d="M50.14,222.17c-.28,.7-.88,2.05-.88,2.77,0,.79,.94,.73,1.49,.79v.42c-.68-.02-1.34-.06-2.02-.07-.64,.02-1.27,.06-1.91,.07v-.42c.99-.11,1.39-.4,1.76-1.3,.51-1.17,1.01-2.33,1.52-3.5l2.81-7.21h.62l3.71,9.32c.22,.48,.62,1.6,.95,2.02,.4,.53,.95,.6,1.58,.68v.42c-.86-.02-1.74-.06-2.6-.07-.88,.02-1.78,.06-2.66,.07v-.42c.51-.02,1.41,.02,1.41-.7,0-.46-.2-1.01-.37-1.43l-.72-1.89h-4.53l-.17,.46Zm4.46-1.05l-2.02-5.17-2.04,5.17h4.05Z"/><path class="cls-6" d="M62.47,219.56h.04c.68-.97,1.52-1.52,2.71-1.52,2.42,0,4.07,1.82,4.07,4.2,0,2.24-1.65,4.11-3.96,4.11-1.08,0-1.85-.33-2.64-1.04v3.56c0,1.32-.13,1.8,1.41,1.87v.37c-.68-.02-1.36-.06-2.04-.07-.73,.02-1.47,.06-2.2,.07v-.37c1.38-.09,1.27-.55,1.27-1.76v-7.19c0-.51,0-1.8-.09-2.22-.15-.66-.64-.59-1.23-.59v-.37c.92-.13,1.82-.37,2.66-.57v1.52Zm.22,3.47c0,.62,0,1.52,.4,2,.42,.5,1.14,.73,1.8,.73,1.98,0,2.57-1.93,2.57-3.58s-.53-3.56-2.53-3.56c-.77,0-1.47,.39-1.85,1.05-.38,.66-.38,1.3-.38,2.05v1.3Z"/><path class="cls-6" d="M73.1,219.56h.04c.68-.97,1.52-1.52,2.71-1.52,2.42,0,4.07,1.82,4.07,4.2,0,2.24-1.65,4.11-3.96,4.11-1.08,0-1.85-.33-2.64-1.04v3.56c0,1.32-.13,1.8,1.41,1.87v.37c-.68-.02-1.36-.06-2.04-.07-.73,.02-1.47,.06-2.2,.07v-.37c1.38-.09,1.27-.55,1.27-1.76v-7.19c0-.51,0-1.8-.09-2.22-.15-.66-.64-.59-1.23-.59v-.37c.92-.13,1.82-.37,2.66-.57v1.52Zm.22,3.47c0,.62,0,1.52,.4,2,.42,.5,1.14,.73,1.8,.73,1.98,0,2.57-1.93,2.57-3.58s-.53-3.56-2.53-3.56c-.77,0-1.47,.39-1.85,1.05-.39,.66-.39,1.3-.39,2.05v1.3Z"/><path class="cls-6" d="M85.98,221.12c.18-.09,.15-.33,.15-.53,0-1.25-.11-2.13-1.61-2.13-.92,0-1.67,.07-1.72,1.05-.04,.4-.28,.81-.73,.81-.4,0-.7-.26-.7-.66,0-1.36,2.44-1.61,3.38-1.61,2.04,0,2.97,.53,2.97,2.64v3.03c0,.46-.07,1.82,.64,1.82,.37,0,.55-.33,.75-.59l.35,.18c-.29,.61-.97,1.23-1.65,1.23-.75,0-1.39-.57-1.58-1.3-.86,.7-1.93,1.3-3.06,1.3-.97,0-1.91-.59-1.91-1.61,0-1.54,1.74-2.2,2.92-2.73l1.82-.88Zm.17,.46c-1.1,.53-3.19,1.25-3.19,2.71,0,.68,.42,1.32,1.17,1.32s1.5-.55,2.02-1.05v-2.99Z"/><path class="cls-6" d="M92.78,223.93c.04,1.21-.17,1.76,1.28,1.85v.37c-.72-.02-1.41-.06-2.11-.07-.68,.02-1.34,.06-2.02,.07v-.37c1.38-.09,1.28-.53,1.28-1.74v-7.04c0-.46,0-1.58-.18-1.96-.22-.46-.77-.42-1.19-.48v-.37l2.93-.59v10.33Z"/><path class="cls-6" d="M99.91,221.12c.18-.09,.15-.33,.15-.53,0-1.25-.11-2.13-1.61-2.13-.92,0-1.67,.07-1.72,1.05-.04,.4-.28,.81-.73,.81-.4,0-.7-.26-.7-.66,0-1.36,2.44-1.61,3.38-1.61,2.04,0,2.97,.53,2.97,2.64v3.03c0,.46-.07,1.82,.64,1.82,.37,0,.55-.33,.75-.59l.35,.18c-.29,.61-.97,1.23-1.65,1.23-.75,0-1.39-.57-1.58-1.3-.86,.7-1.93,1.3-3.06,1.3-.97,0-1.91-.59-1.91-1.61,0-1.54,1.74-2.2,2.92-2.73l1.82-.88Zm.17,.46c-1.1,.53-3.19,1.25-3.19,2.71,0,.68,.42,1.32,1.17,1.32s1.5-.55,2.02-1.05v-2.99Z"/><path class="cls-6" d="M111.27,224.93c-.77,.95-2.04,1.41-3.23,1.41-2.27,0-3.94-1.61-3.94-3.89,0-2.57,1.94-4.42,4.49-4.42,.71,0,2.38,.22,2.38,1.23,0,.33-.28,.68-.61,.68-.44,0-.68-.37-.81-.71-.22-.55-.37-.7-1.04-.7-1.98,0-2.59,2.02-2.59,3.63,0,1.76,.57,3.59,2.64,3.59,.92,0,1.72-.48,2.31-1.16l.39,.33Z"/><path class="cls-6" d="M115.28,219.62h.04c.62-.99,1.65-1.58,2.82-1.58,1.74,0,2.75,.83,2.75,2.57v3.32c0,1.21-.17,1.76,1.26,1.85v.37c-.71-.02-1.41-.06-2.13-.07-.66,.02-1.34,.06-1.96,.07v-.37c1.38-.09,1.27-.53,1.27-1.74v-2.71c0-1.17-.11-2.7-1.67-2.7-.79,0-1.69,.55-2.05,1.28-.29,.59-.33,1.32-.33,2v2.02c0,1.21-.15,1.76,1.28,1.85v.37c-.68-.02-1.34-.06-2.02-.07-.7,.02-1.41,.06-2.11,.07v-.37c1.38-.09,1.28-.53,1.28-1.74v-7.04c0-.46,0-1.58-.18-1.96-.22-.46-.77-.42-1.19-.48v-.37l2.93-.59v6.02Z"/><path class="cls-6" d="M126.16,218.04v5.89c.04,1.21-.17,1.76,1.28,1.85v.37c-.62-.02-1.3-.06-1.96-.07-.71,.02-1.43,.06-2.15,.07v-.37c1.36-.09,1.25-.53,1.27-1.74v-2.62c0-.35,0-1.76-.07-2.04-.13-.46-.9-.42-1.26-.4v-.37l2.9-.57Zm-1.98-3.26c0-.55,.44-.99,.99-.99s.97,.44,.97,.99-.42,.97-.94,.97c-.55,0-1.03-.4-1.03-.97Z"/><path class="cls-6" d="M133.29,221.12c.18-.09,.15-.33,.15-.53,0-1.25-.11-2.13-1.61-2.13-.92,0-1.67,.07-1.72,1.05-.04,.4-.28,.81-.73,.81-.4,0-.7-.26-.7-.66,0-1.36,2.44-1.61,3.38-1.61,2.04,0,2.97,.53,2.97,2.64v3.03c0,.46-.07,1.82,.64,1.82,.37,0,.55-.33,.75-.59l.35,.18c-.29,.61-.97,1.23-1.65,1.23-.75,0-1.39-.57-1.58-1.3-.86,.7-1.93,1.3-3.06,1.3-.97,0-1.91-.59-1.91-1.61,0-1.54,1.74-2.2,2.92-2.73l1.82-.88Zm.17,.46c-1.1,.53-3.19,1.25-3.19,2.71,0,.68,.42,1.32,1.17,1.32s1.5-.55,2.02-1.05v-2.99Z"/><path class="cls-6" d="M145.82,223.93c0,1.21-.15,1.76,1.28,1.85v.37c-.66-.02-1.34-.06-2-.07-.71,.02-1.41,.06-2.13,.07v-.37c1.38-.09,1.28-.53,1.28-1.74v-2.35c0-1.27,.06-3.06-1.69-3.06-1.43,0-2.35,1.12-2.35,2.46v2.84c0,1.21-.17,1.76,1.28,1.85v.37c-.66-.02-1.34-.06-2-.07-.71,.02-1.41,.06-2.13,.07v-.37c1.38-.09,1.28-.53,1.28-1.74v-2.26c0-.51,0-1.8-.09-2.22-.15-.66-.64-.59-1.23-.59v-.37c.95-.11,1.63-.4,2.53-.57l.24,1.67h.04c.64-1.14,1.63-1.67,2.93-1.67,1.74,0,2.73,.79,2.73,2.53v3.36Z"/><path class="cls-6" d="M153.34,222.44h.42c.37,1.85,1.36,3.41,3.47,3.41,1.43,0,2.62-.81,2.62-2.29,0-1.67-1.45-2.33-2.79-2.86-1.67-.64-3.45-1.52-3.45-3.61s1.63-3.3,3.63-3.3c1.01,0,1.94,.35,2.77,.94l.42-.72h.2l.09,3.17h-.42c-.42-1.52-1.28-2.9-3.06-2.9-1.17,0-2.15,.75-2.15,1.94,0,1.45,1.3,1.94,2.44,2.42,1.91,.79,4.04,1.74,4.04,4.15s-2.24,3.56-4.38,3.56c-1.25,0-2.22-.37-3.21-1.1l-.44,.77h-.2v-3.58Z"/><path class="cls-6" d="M162.87,218.85v-.33c.92-.53,1.83-1.27,2.22-2.31h.27v2.15h2.09v.5h-2.09v5.23c0,.83,.17,1.69,1.14,1.69,.64,0,.97-.37,1.32-.83l.33,.24c-.33,.88-1.25,1.17-2.13,1.17-1.32,0-2.22-.51-2.22-1.89v-5.61h-.94Z"/><path class="cls-6" d="M173.27,221.12c.18-.09,.15-.33,.15-.53,0-1.25-.11-2.13-1.61-2.13-.92,0-1.67,.07-1.72,1.05-.04,.4-.28,.81-.73,.81-.4,0-.7-.26-.7-.66,0-1.36,2.44-1.61,3.38-1.61,2.04,0,2.97,.53,2.97,2.64v3.03c0,.46-.07,1.82,.64,1.82,.37,0,.55-.33,.75-.59l.35,.18c-.29,.61-.97,1.23-1.65,1.23-.75,0-1.39-.57-1.58-1.3-.86,.7-1.93,1.3-3.06,1.3-.97,0-1.91-.59-1.91-1.61,0-1.54,1.74-2.2,2.92-2.73l1.82-.88Zm.17,.46c-1.1,.53-3.19,1.25-3.19,2.71,0,.68,.42,1.32,1.17,1.32s1.5-.55,2.02-1.05v-2.99Z"/><path class="cls-6" d="M177.54,218.85v-.33c.92-.53,1.83-1.27,2.22-2.31h.27v2.15h2.09v.5h-2.09v5.23c0,.83,.17,1.69,1.14,1.69,.64,0,.97-.37,1.32-.83l.33,.24c-.33,.88-1.25,1.17-2.13,1.17-1.32,0-2.22-.51-2.22-1.89v-5.61h-.94Z"/><path class="cls-6" d="M190.73,224.79c-.86,1.06-1.89,1.56-3.26,1.56-2.27,0-4.15-1.6-4.15-3.94s1.74-4.37,4.13-4.37c1.8,0,3.5,1.01,3.5,2.99,0,.24-.27,.17-.46,.17h-5.26l-.07,.88c0,1.74,.92,3.69,2.88,3.69,.94,0,1.76-.62,2.31-1.36l.39,.39Zm-2.38-4.09c.29,0,.9,.09,.9-.37,0-1.14-.62-1.87-1.78-1.87-1.38,0-1.93,1.05-2.15,2.24h3.03Z"/><path class="cls-6" d="M208.46,221.29c0,3.34-1.3,5.06-4.79,5.06-3.28,0-4.88-1.16-4.88-4.47v-4.38c0-.59,0-1.94-.18-2.44-.24-.62-.99-.62-1.58-.62v-.42c.86,.02,1.74,.06,2.6,.07,.94-.02,1.85-.05,2.79-.07v.42c-.59,0-1.36-.02-1.58,.62-.17,.5-.17,1.85-.17,2.44v4.51c0,2.35,.92,3.69,3.43,3.69s3.8-1.32,3.8-3.78v-4.02c0-.64,0-2.05-.18-2.62-.26-.77-.99-.84-1.71-.84v-.42c.71,.02,1.41,.06,2.13,.07,.68-.02,1.36-.05,2.05-.07v.42c-.59,.02-1.23,0-1.49,.66-.26,.66-.26,2.07-.26,2.81v3.39Z"/><path class="cls-6" d="M219.91,223.93c0,1.21-.15,1.76,1.28,1.85v.37c-.66-.02-1.34-.06-2-.07-.71,.02-1.41,.06-2.13,.07v-.37c1.38-.09,1.28-.53,1.28-1.74v-2.35c0-1.27,.06-3.06-1.69-3.06-1.43,0-2.35,1.12-2.35,2.46v2.84c0,1.21-.17,1.76,1.28,1.85v.37c-.66-.02-1.34-.06-2-.07-.72,.02-1.41,.06-2.13,.07v-.37c1.38-.09,1.28-.53,1.28-1.74v-2.26c0-.51,0-1.8-.09-2.22-.15-.66-.64-.59-1.23-.59v-.37c.95-.11,1.63-.4,2.53-.57l.24,1.67h.04c.64-1.14,1.63-1.67,2.93-1.67,1.74,0,2.73,.79,2.73,2.53v3.36Z"/><path class="cls-6" d="M225.19,218.04v5.89c.04,1.21-.17,1.76,1.28,1.85v.37c-.62-.02-1.3-.06-1.96-.07-.71,.02-1.43,.06-2.15,.07v-.37c1.36-.09,1.25-.53,1.27-1.74v-2.62c0-.35,0-1.76-.07-2.04-.13-.46-.9-.42-1.26-.4v-.37l2.9-.57Zm-1.98-3.26c0-.55,.44-.99,.99-.99s.97,.44,.97,.99-.42,.97-.94,.97c-.55,0-1.03-.4-1.03-.97Z"/><path class="cls-6" d="M227.99,219.93c-.29-.72-.44-1.3-1.3-1.36v-.37c.66,.02,1.3,.06,1.96,.07,.62-.02,1.25-.04,1.87-.07v.37c-.39,.02-1.05,.09-1.05,.61,0,.26,.17,.68,.24,.9l1.78,4.42c.33-.99,1.83-4.31,1.83-5.17,0-.61-.61-.7-1.04-.75v-.37c.46,.02,.9,.06,1.36,.07,.44-.02,.88-.05,1.32-.07v.37c-.31,.07-.51,.18-.72,.44-.29,.38-.77,1.61-.95,2.13l-2.17,5.34h-.38l-2.75-6.55Z"/><path class="cls-6" d="M242.81,224.79c-.86,1.06-1.89,1.56-3.26,1.56-2.27,0-4.15-1.6-4.15-3.94s1.74-4.37,4.13-4.37c1.8,0,3.5,1.01,3.5,2.99,0,.24-.27,.17-.46,.17h-5.26l-.07,.88c0,1.74,.92,3.69,2.88,3.69,.94,0,1.76-.62,2.31-1.36l.39,.39Zm-2.38-4.09c.29,0,.9,.09,.9-.37,0-1.14-.62-1.87-1.78-1.87-1.38,0-1.93,1.05-2.15,2.24h3.03Z"/><path class="cls-6" d="M245.76,221.78c0-.5,.02-1.8-.11-2.22-.17-.66-.62-.59-1.21-.59v-.37c.86-.05,1.67-.38,2.48-.57,.17,.53,.24,1.19,.22,1.85h.04c.48-1.12,1.39-1.85,2.66-1.85,.57,0,1.3,.28,1.3,.95,0,.35-.29,.66-.64,.66-.77,0-.61-.95-1.32-.95-.55,0-1.16,.46-1.43,.92-.42,.75-.42,1.65-.42,2.5v1.82c0,1.34-.15,1.78,1.39,1.85v.37c-.7-.02-1.41-.06-2.11-.07-.72,.02-1.41,.06-2.13,.07v-.37c1.38-.09,1.28-.53,1.28-1.74v-2.26Z"/><path class="cls-6" d="M252.02,226.22h-.18l-.07-2.62h.37c.29,1.17,.92,2.33,2.27,2.33,.81,0,1.54-.4,1.54-1.28,0-1.04-1.06-1.47-1.85-1.87-1.06-.55-2.2-1.16-2.2-2.53,0-1.27,1.01-2.2,2.27-2.2,.57,0,1.27,.17,1.78,.46l.37-.44h.22l-.04,2.29h-.37c-.33-.92-.73-1.89-1.89-1.89-.6,0-1.17,.35-1.17,1.01,0,.95,1.01,1.28,1.71,1.67,1.27,.66,2.42,1.14,2.42,2.79,0,1.5-1.28,2.42-2.7,2.42-.7,0-1.47-.22-2.02-.66l-.46,.53Z"/><path class="cls-6" d="M261.13,218.04v5.89c.04,1.21-.17,1.76,1.28,1.85v.37c-.62-.02-1.3-.06-1.96-.07-.71,.02-1.43,.06-2.15,.07v-.37c1.36-.09,1.25-.53,1.27-1.74v-2.62c0-.35,0-1.76-.07-2.04-.13-.46-.9-.42-1.26-.4v-.37l2.9-.57Zm-1.98-3.26c0-.55,.44-.99,.99-.99s.97,.44,.97,.99-.42,.97-.94,.97c-.55,0-1.03-.4-1.03-.97Z"/><path class="cls-6" d="M263.73,218.85v-.33c.92-.53,1.83-1.27,2.22-2.31h.27v2.15h2.09v.5h-2.09v5.23c0,.83,.17,1.69,1.14,1.69,.64,0,.97-.37,1.32-.83l.33,.24c-.33,.88-1.25,1.17-2.13,1.17-1.32,0-2.22-.51-2.22-1.89v-5.61h-.94Z"/><path class="cls-6" d="M269.86,219.98c-.13-.31-.31-.77-.53-1.03-.17-.18-.6-.38-.83-.38v-.37c.62,.02,1.25,.06,1.87,.07,.7-.02,1.38-.05,2.07-.07v.37c-.26,.09-1.12,.05-1.12,.64,0,.48,.55,1.71,.75,2.2l1.17,2.81,1.38-3.3c.18-.44,.51-1.23,.51-1.71,0-.51-.62-.62-1.01-.64v-.37c.48,.02,.94,.06,1.41,.07,.4-.02,.81-.05,1.21-.07v.37c-.77,.02-.79,.55-1.08,1.17l-.24,.53-3.82,8.8c-.24,.57-.77,1.98-1.54,1.98-.33,.07-.55-.18-.55-.44,0-.84,1.03-.79,1.39-1.36,.29-.44,.61-1.17,.83-1.69l.7-1.56-2.59-6.03Z"/></g></g></g></svg>