<?xml version="1.0" encoding="utf-8"?>
<!-- Generator: Adobe Illustrator 26.3.1, SVG Export Plug-In . SVG Version: 6.00 Build 0)  -->
<svg version="1.1" id="Layer_2_00000177484900363487736920000000294289037879931043_"
	 xmlns="http://www.w3.org/2000/svg" xmlns:xlink="http://www.w3.org/1999/xlink" x="0px" y="0px" viewBox="0 0 323.6 291.6"
	 style="enable-background:new 0 0 323.6 291.6;" xml:space="preserve">
<style type="text/css">
	.st0{fill:none;}
	.st1{fill:#8DC63F;}
	.st2{fill:#648362;}
	.st3{fill:#A3B847;}
	.st4{fill:#FFD200;}
	.st5{fill:#DBE11F;}
	.st6{fill:#FFFFFF;}
</style>
<path class="st0" d="M110.8,94.4c-17.6,4.2-32,18-35.5,37.5H139c0.8-5.4,2.3-10.6,4.5-15.4C130.3,112.7,118.8,104.9,110.8,94.4
	L110.8,94.4z"/>
<path class="st0" d="M161.7,119.1c-1,0-2.1,0-3.1-0.1c-2,3.9-3.4,8.3-4.2,12.9h15c-0.9-4.6-2.4-8.9-4.4-12.9
	C163.8,119,162.7,119.1,161.7,119.1L161.7,119.1z"/>
<path class="st0" d="M179.7,116.5c2.3,4.9,3.9,10.1,4.8,15.4h63.9c-3.7-19-17.6-33.3-35.9-37.5C204.2,105.1,192.6,112.8,179.7,116.5
	L179.7,116.5z"/>
<path class="st0" d="M121.9,186.1c10.9,0,21.6-3.5,29.9-9.7c-7.3-8.8-12-19.5-13.1-31.4H75.3C76.6,167.6,98.6,186.1,121.9,186.1z"/>
<path class="st0" d="M161.5,13.1c-22.4,0-42.5,15.4-46.7,38.8h94C204.4,29,185.2,13.1,161.5,13.1z"/>
<path class="st0" d="M194.6,93.6c-8.6,1.1-16.6,4.5-23.3,9.8c0.4,0.5,0.8,1,1.2,1.5C180.9,103,188.6,99.1,194.6,93.6L194.6,93.6z"/>
<path class="st0" d="M151.9,103.2c-6.3-4.9-13.9-8.2-22.3-9.5c5.9,5.2,13.2,9.1,21.1,11C151,104.2,151.5,103.7,151.9,103.2z"/>
<path class="st1" d="M171.3,103.3c-0.9,0.7-1.7,1.4-2.6,2.2c1.3-0.2,2.5-0.4,3.8-0.7C172.1,104.3,171.7,103.8,171.3,103.3z"/>
<path class="st1" d="M151.8,176.4c-8.3,6.2-18.9,9.7-29.9,9.7c-23.3,0-45.3-18.5-46.7-41.1h63.4c-0.2-1.7-0.2-3.4-0.2-5.2
	c0-2.7,0.2-5.3,0.6-7.9H75.3c3.5-19.5,17.9-33.3,35.5-37.5c-2.8-3.6-5.1-7.5-7-11.7c-25.3,7.5-44.4,30.2-44.4,57.1
	c0,33.2,28.6,59.3,62.7,59.3c14.4,0,28.4-4.8,39.4-13.3C158,183,154.7,179.8,151.8,176.4L151.8,176.4z"/>
<path class="st1" d="M129.6,93.7c8.4,1.3,16,4.6,22.3,9.5c2.9-3.5,6.1-6.7,9.7-9.4c-10.7-8.4-24.3-13.7-39.6-13.7c-1,0-2,0-3,0.1
	C121.6,85.2,125.2,89.8,129.6,93.7z"/>
<path class="st1" d="M171.8,175.9c4-4.9,7.3-10.5,9.6-16.6h-16.3c-0.9,2.2-2,4.4-3.3,6.4C164.6,169.5,167.9,173,171.8,175.9
	L171.8,175.9z"/>
<path class="st1" d="M164.9,119c2,4,3.5,8.3,4.4,12.9h15.2c-0.9-5.3-2.5-10.5-4.8-15.4C174.9,117.9,169.9,118.7,164.9,119L164.9,119
	z"/>
<path class="st2" d="M154.6,105.5c-0.9-0.8-1.8-1.6-2.7-2.3c-0.4,0.5-0.8,1-1.2,1.5C152,105,153.3,105.3,154.6,105.5L154.6,105.5z"
	/>
<path class="st2" d="M248.3,131.9h-63.9c0.5,2.9,0.7,5.8,0.7,8.7c0,1.4-0.2,2.9-0.2,4.4h79c0-1.4,0.2-2.9,0.2-4.4
	c0-25.7-18.2-50-44.7-57.9c-1.9,4.2-4.3,8.1-7,11.7C230.7,98.7,244.6,112.9,248.3,131.9z"/>
<path class="st2" d="M161.6,185.8c10.9,8.4,24.7,13.3,39.6,13.3c25.8,0,50-15.4,59.2-39.8h-16.3c-6.6,16.6-24.4,26.8-43.1,26.8
	c-10.6,0-21-3.8-29.2-10.1C168.8,179.6,165.4,182.9,161.6,185.8L161.6,185.8z"/>
<path class="st2" d="M171.3,103.3c6.6-5.2,14.7-8.6,23.3-9.8c4.1-3.8,7.4-8.2,9.6-13.4c-1.1-0.1-2.1-0.1-3.2-0.1
	c-14.8,0-28.6,5.1-39.4,13.7C165.2,96.6,168.5,99.8,171.3,103.3L171.3,103.3z"/>
<path class="st2" d="M138.7,145c1.1,11.8,5.8,22.6,13.1,31.4c3.9-3,7.4-6.6,10-10.7c-4.3-6.1-7.1-13.1-7.5-20.7L138.7,145L138.7,145
	z"/>
<path class="st2" d="M158.6,119c-5.2-0.2-10.2-1.1-15.1-2.5c-2.2,4.8-3.7,10-4.5,15.4h15.3C155.1,127.3,156.6,123,158.6,119z"/>
<path class="st3" d="M184.4,131.9H139c-0.4,2.6-0.6,5.2-0.6,7.9c0,1.8,0.1,3.5,0.2,5.2h46.2c0-1.4,0.2-2.9,0.2-4.4
	C185.1,137.7,184.9,134.8,184.4,131.9z"/>
<path class="st3" d="M151.8,176.4c2.9,3.5,6.2,6.7,9.8,9.4c3.7-2.9,7.2-6.2,10.2-9.9c-3.8-2.9-7.2-6.4-10-10.3
	C159.2,169.8,155.8,173.4,151.8,176.4L151.8,176.4z"/>
<path class="st2" d="M151.9,103.2c0.9,0.7,1.9,1.5,2.7,2.3c2.3,0.3,4.6,0.5,6.9,0.5c2.5,0,4.9-0.2,7.3-0.5c0.8-0.8,1.7-1.5,2.6-2.2
	c-2.9-3.5-6.2-6.7-9.8-9.6C158,96.5,154.7,99.7,151.9,103.2L151.9,103.2z"/>
<path class="st4" d="M114.8,64.9h109.6c0-1.5,0.2-2.9,0.2-4.4c0-31.3-27.1-60.6-63.2-60.6c-33.7,0-62.5,26.8-62.5,59.8
	c0,8.2,1.7,15.9,4.9,23c4.9-1.4,9.9-2.3,15.2-2.6C116.6,75.4,115.1,70.3,114.8,64.9L114.8,64.9z M161.5,13.1
	c23.8,0,42.9,16,47.3,38.8h-94C119,28.4,139,13.1,161.5,13.1L161.5,13.1z"/>
<path class="st4" d="M179.7,116.5c13-3.7,24.6-11.4,32.8-22.1c-3.7-0.8-7.5-1.3-11.5-1.3c-2.1,0-4.3,0.1-6.4,0.4
	c-6,5.6-13.7,9.4-22.1,11.3C175.3,108.5,177.7,112.4,179.7,116.5L179.7,116.5z"/>
<path class="st4" d="M143.5,116.5c1.9-4.2,4.3-8.2,7.1-11.8c-7.8-1.9-15.1-5.8-21.1-11c-2.5-0.4-5-0.6-7.7-0.6
	c-3.8,0-7.5,0.4-11.2,1.3C118.8,104.9,130.3,112.7,143.5,116.5L143.5,116.5z"/>
<path class="st4" d="M164.9,119c-0.9-1.9-2-3.7-3.2-5.3c-1.1,1.7-2.2,3.5-3.1,5.4c1,0.1,2.1,0.1,3.1,0.1S163.8,119,164.9,119
	L164.9,119z"/>
<path class="st5" d="M161.7,113.7c1.2,1.7,2.2,3.5,3.2,5.3c5.1-0.2,10-1.1,14.8-2.5c-1.9-4.1-4.3-8.1-7.1-11.7
	c-1.2,0.3-2.5,0.5-3.8,0.7C166.1,107.9,163.7,110.6,161.7,113.7L161.7,113.7z"/>
<path class="st5" d="M121.9,93.1c2.6,0,5.2,0.2,7.6,0.6c-4.4-3.9-8-8.5-10.6-13.6c-5.2,0.2-10.3,1.1-15.2,2.6
	c1.9,4.2,4.2,8.1,7,11.7C114.4,93.6,118.1,93.1,121.9,93.1L121.9,93.1z"/>
<path class="st3" d="M143.5,116.5c4.8,1.4,9.9,2.2,15.1,2.5c0.9-1.9,2-3.7,3.1-5.4c-2.1-3-4.4-5.7-7.1-8.2c-1.3-0.2-2.7-0.5-4-0.8
	C147.8,108.4,145.4,112.3,143.5,116.5L143.5,116.5z"/>
<path class="st3" d="M194.6,93.6c2.1-0.3,4.2-0.4,6.4-0.4c4,0,7.8,0.4,11.5,1.3c2.7-3.6,5.1-7.5,7-11.7c-4.8-1.4-9.9-2.3-15.2-2.6
	C202,85.3,198.7,89.8,194.6,93.6L194.6,93.6z"/>
<path class="st3" d="M161.7,113.7c2.1-3,4.4-5.8,7.1-8.2c-2.4,0.3-4.9,0.5-7.3,0.5c-2.3,0-4.6-0.2-6.9-0.5
	C157.3,107.9,159.6,110.7,161.7,113.7L161.7,113.7z"/>
<path class="st6" d="M0.9,287.8v-8.1H0V278h0.9v-0.4c0-1.9,1.3-2.8,3.1-2.8h0.4v1.7c-1.2,0-1.7,0.4-1.7,1.1v0.5h1.7v1.7H2.7v8.1H0.9
	z"/>
<path class="st6" d="M10,288c-2.8,0-5.2-2.3-5.2-5.1c0-3,2.3-5.2,5.3-5.2c2.7,0,5.2,2.1,5.2,5.2C15.3,285.6,13.1,288,10,288L10,288z
	 M10.1,279.4c-1.8,0-3.4,1.5-3.4,3.5s1.5,3.5,3.4,3.5s3.5-1.5,3.5-3.5S12,279.4,10.1,279.4L10.1,279.4z"/>
<path class="st6" d="M17.2,287.8V278H19v0.9h0c0.4-0.6,1.2-1.1,2.5-1.1v1.9c-1.6,0-2.4,1-2.4,2.7v5.5L17.2,287.8L17.2,287.8z"/>
<path class="st6" d="M29.4,283.7c0.4,1.6,1.7,2.7,3.2,2.7c1.2,0,2.2-0.6,2.8-1.6h1.8c-0.8,2-2.6,3.3-4.7,3.3c-2.8,0-5-2.4-5-5
	c0-3.1,2.3-5.2,4.9-5.2c2.9,0,5.1,2.2,5.1,5c0,0.3,0,0.6,0,0.9L29.4,283.7L29.4,283.7z M35.7,282.3c-0.1-1.7-1.6-2.9-3.2-2.9
	s-3,1.2-3.1,2.9H35.7z"/>
<path class="st6" d="M46.2,287.8v-5.3c0-2.1-0.8-3-2.4-3s-2.6,1.2-2.6,3v5.3h-1.8V278h1.7v1h0c0.7-0.9,1.7-1.3,2.9-1.3
	c2.3,0,4.1,1.5,4.1,4.2v5.9L46.2,287.8L46.2,287.8z"/>
<path class="st6" d="M52.8,287.8l-3.9-9.8h2l2.6,7h0l2.5-7h2l-3.8,9.8H52.8L52.8,287.8z"/>
<path class="st6" d="M59.3,276.9v-2.1h1.8v2.1H59.3z M59.3,287.8V278h1.8v9.8H59.3z"/>
<path class="st6" d="M63.5,287.8V278h1.7v0.9h0c0.4-0.6,1.2-1.1,2.5-1.1v1.9c-1.6,0-2.4,1-2.4,2.7v5.5L63.5,287.8L63.5,287.8z"/>
<path class="st6" d="M73.7,288c-2.8,0-5.2-2.3-5.2-5.1c0-3,2.3-5.2,5.3-5.2c2.7,0,5.2,2.1,5.2,5.2C79,285.6,76.8,288,73.7,288
	L73.7,288z M73.8,279.4c-1.8,0-3.4,1.5-3.4,3.5s1.5,3.5,3.4,3.5s3.5-1.5,3.5-3.5S75.7,279.4,73.8,279.4L73.8,279.4z"/>
<path class="st6" d="M87.8,287.8v-5.3c0-2.1-0.8-3-2.4-3s-2.6,1.2-2.6,3v5.3h-1.8V278h1.7v1h0c0.7-0.9,1.7-1.3,2.9-1.3
	c2.3,0,4.1,1.5,4.1,4.2v5.9L87.8,287.8L87.8,287.8z"/>
<path class="st6" d="M104.9,287.8v-5.5c0-1.9-0.8-2.9-2.3-2.9c-1.6,0-2.3,0.9-2.3,2.9v5.5h-1.8v-5.7c0-1.9-0.9-2.7-2.2-2.7
	c-1.6,0-2.4,1-2.4,2.9v5.5h-1.8V278h1.7v1.1h0c0.8-0.9,1.5-1.3,2.8-1.3s2.5,0.6,3,1.6c0.7-1.1,1.7-1.6,3.2-1.6c2.5,0,4,1.6,4,4.1
	v5.9L104.9,287.8L104.9,287.8z"/>
<path class="st6" d="M110.4,283.7c0.4,1.6,1.7,2.7,3.2,2.7c1.2,0,2.2-0.6,2.8-1.6h1.8c-0.8,2-2.6,3.3-4.7,3.3c-2.8,0-5-2.4-5-5
	c0-3.1,2.3-5.2,4.9-5.2c2.9,0,5.1,2.2,5.1,5c0,0.3,0,0.6-0.1,0.9L110.4,283.7L110.4,283.7z M116.7,282.3c-0.1-1.7-1.6-2.9-3.2-2.9
	s-3,1.2-3.1,2.9H116.7z"/>
<path class="st6" d="M127.2,287.8v-5.3c0-2.1-0.8-3-2.4-3s-2.6,1.2-2.6,3v5.3h-1.8V278h1.7v1h0c0.7-0.9,1.7-1.3,2.9-1.3
	c2.3,0,4.1,1.5,4.1,4.2v5.9L127.2,287.8L127.2,287.8z"/>
<path class="st6" d="M131.6,287.8v-8.1h-1.3V278h1.3v-3.3h1.8v3.3h1.6v1.7h-1.6v8.1H131.6z"/>
<path class="st6" d="M135.6,288.9c0.5-0.2,0.6-0.4,0.6-1.1h-0.6v-2.1h1.8v2c0,1.3-0.6,2.1-1.8,2.4V288.9z"/>
<path class="st6" d="M145.5,283.7c0.4,1.6,1.7,2.7,3.2,2.7c1.1,0,2.2-0.6,2.8-1.6h1.8c-0.8,2-2.6,3.3-4.7,3.3c-2.8,0-5-2.4-5-5
	c0-3.1,2.3-5.2,4.9-5.2c2.9,0,5.1,2.2,5.1,5c0,0.3,0,0.6-0.1,0.9L145.5,283.7L145.5,283.7z M151.8,282.3c-0.1-1.7-1.6-2.9-3.2-2.9
	s-3,1.2-3.1,2.9H151.8z"/>
<path class="st6" d="M162.3,287.8v-5.3c0-2.1-0.8-3-2.4-3s-2.6,1.2-2.6,3v5.3h-1.8V278h1.7v1h0c0.7-0.9,1.7-1.3,2.9-1.3
	c2.3,0,4.1,1.5,4.1,4.2v5.9L162.3,287.8L162.3,287.8z"/>
<path class="st6" d="M167.8,283.7c0.4,1.6,1.7,2.7,3.2,2.7c1.1,0,2.2-0.6,2.8-1.6h1.8c-0.8,2-2.6,3.3-4.7,3.3c-2.8,0-5-2.4-5-5
	c0-3.1,2.3-5.2,4.9-5.2c2.9,0,5.1,2.2,5.1,5c0,0.3,0,0.6-0.1,0.9L167.8,283.7L167.8,283.7z M174.1,282.3c-0.1-1.7-1.6-2.9-3.2-2.9
	s-3,1.2-3.1,2.9H174.1z"/>
<path class="st6" d="M177.8,287.8V278h1.7v0.9h0c0.4-0.6,1.2-1.1,2.5-1.1v1.9c-1.6,0-2.4,1-2.4,2.7v5.5L177.8,287.8L177.8,287.8z"/>
<path class="st6" d="M191.3,286.5c-0.8,1-2,1.5-3.4,1.5c-2.8,0-5.2-2.4-5.2-5.1c0-2.9,2.3-5.2,5.2-5.2c1.3,0,2.6,0.5,3.4,1.4V278
	h1.8v8.5c0,3.2-2,5.1-5.3,5.1c-2.2,0-4-1.2-4.8-3.1h2c0.7,1,1.6,1.4,2.8,1.4C190.2,289.9,191.3,288.7,191.3,286.5L191.3,286.5
	L191.3,286.5z M191.4,282.9c0-2.3-1.8-3.5-3.4-3.5c-1.8,0-3.4,1.6-3.4,3.5s1.6,3.5,3.4,3.5C190.1,286.3,191.4,284.5,191.4,282.9
	L191.4,282.9z"/>
<path class="st6" d="M197,291l1.4-3.5l-3.9-9.6h2l2.9,7.6l2.9-7.6h2l-5.4,13L197,291L197,291z"/>
<path class="st6" d="M218.1,285.7c-1,1.6-2.3,2.3-3.8,2.3c-2.2,0-4-1.7-4-3.9c0-1.6,0.9-3,2.5-3.7c-1-1-1.2-1.7-1.2-2.6
	c0-1.8,1.4-3.3,3.3-3.3c1.8,0,3.2,1.5,3.2,3.3c0,1.4-0.8,2.5-2.2,3.1l1.7,1.7l1.4-2.9h2.1L219,284l2.6,2.7l-1.3,1.3L218.1,285.7
	L218.1,285.7z M214,281.7c-1.1,0.4-1.9,1.2-1.9,2.4s0.9,2.2,2.1,2.2c1,0,1.8-0.5,2.5-1.9L214,281.7L214,281.7z M216.2,277.7
	c0-0.8-0.6-1.5-1.4-1.5s-1.4,0.7-1.4,1.6c0,0.6,0.4,1.2,1.1,1.9C215.8,279,216.1,278.5,216.2,277.7L216.2,277.7z"/>
<path class="st6" d="M229.5,283.7c0.4,1.6,1.7,2.7,3.2,2.7c1.1,0,2.2-0.6,2.8-1.6h1.8c-0.8,2-2.6,3.3-4.7,3.3c-2.8,0-5-2.4-5-5
	c0-3.1,2.3-5.2,4.9-5.2c2.9,0,5.1,2.2,5.1,5c0,0.3,0,0.6-0.1,0.9L229.5,283.7L229.5,283.7z M235.8,282.3c-0.1-1.7-1.6-2.9-3.2-2.9
	s-3,1.2-3.1,2.9H235.8z"/>
<path class="st6" d="M248.7,284.5c-0.8,2.2-2.6,3.5-4.8,3.5c-2.8,0-5-2.3-5-5c0-2.9,2.1-5.2,5-5.2c2.2,0,4.2,1.4,4.8,3.5h-2
	c-0.6-1.1-1.4-1.8-2.8-1.8c-1.9,0-3.2,1.5-3.2,3.5s1.3,3.5,3.2,3.5c1.2,0,2.3-0.7,2.8-1.8L248.7,284.5L248.7,284.5z"/>
<path class="st6" d="M255.2,288c-2.8,0-5.2-2.3-5.2-5.1c0-3,2.3-5.2,5.3-5.2c2.7,0,5.2,2.1,5.2,5.2C260.5,285.6,258.3,288,255.2,288
	L255.2,288z M255.2,279.4c-1.8,0-3.4,1.5-3.4,3.5s1.5,3.5,3.4,3.5s3.5-1.5,3.5-3.5S257.1,279.4,255.2,279.4L255.2,279.4z"/>
<path class="st6" d="M269.2,287.8v-5.3c0-2.1-0.8-3-2.4-3s-2.6,1.2-2.6,3v5.3h-1.8V278h1.7v1h0c0.7-0.9,1.7-1.3,2.9-1.3
	c2.3,0,4.1,1.5,4.1,4.2v5.9L269.2,287.8L269.2,287.8z"/>
<path class="st6" d="M278.1,288c-2.8,0-5.2-2.3-5.2-5.1c0-3,2.3-5.2,5.3-5.2c2.7,0,5.2,2.1,5.2,5.2C283.4,285.6,281.2,288,278.1,288
	L278.1,288z M278.1,279.4c-1.8,0-3.4,1.5-3.4,3.5s1.5,3.5,3.4,3.5s3.5-1.5,3.5-3.5S280,279.4,278.1,279.4L278.1,279.4z"/>
<path class="st6" d="M298.2,287.8v-5.5c0-1.9-0.8-2.9-2.3-2.9c-1.6,0-2.3,0.9-2.3,2.9v5.5h-1.8v-5.7c0-1.9-0.9-2.7-2.2-2.7
	c-1.6,0-2.4,1-2.4,2.9v5.5h-1.8V278h1.7v1.1h0c0.8-0.9,1.5-1.3,2.8-1.3s2.5,0.6,3,1.6c0.7-1.1,1.7-1.6,3.2-1.6c2.5,0,4,1.6,4,4.1
	v5.9L298.2,287.8L298.2,287.8z"/>
<path class="st6" d="M302.4,276.9v-2.1h1.8v2.1H302.4z M302.4,287.8V278h1.8v9.8H302.4z"/>
<path class="st6" d="M315.9,284.5c-0.8,2.2-2.6,3.5-4.8,3.5c-2.8,0-5-2.3-5-5c0-2.9,2.1-5.2,5-5.2c2.2,0,4.2,1.4,4.8,3.5h-2
	c-0.5-1.1-1.4-1.8-2.8-1.8c-1.9,0-3.2,1.5-3.2,3.5s1.3,3.5,3.2,3.5c1.2,0,2.3-0.7,2.8-1.8L315.9,284.5L315.9,284.5z"/>
<path class="st6" d="M321.5,280.6c-0.1-0.7-0.5-1.2-1.2-1.2c-0.7,0-1.1,0.5-1.1,1c0,0.8,0.9,1.1,1.8,1.4c1.4,0.4,2.6,1.2,2.6,3.1
	s-1.4,3.1-3.3,3.1c-1.8,0-3.5-1.2-3.5-3.5h1.8c0.1,1.2,0.7,1.8,1.7,1.8c0.9,0,1.4-0.5,1.4-1.3c0-0.7-0.5-1.1-1.7-1.5
	c-2.4-0.8-2.8-1.8-2.8-2.9c0-1.7,1.5-2.9,3.1-2.9s2.9,1.1,3,2.9H321.5L321.5,280.6z"/>
<path class="st6" d="M13,264.8l-8.6-12.1H4.4v12.1H0.6v-26h8.3c6.3,0,9,3.3,9,8.7c0,5-3.8,7.6-7.5,7.7l7.3,9.7H13L13,264.8z
	 M7.1,252.2c4.4,0,7-1.7,7-5.1c0-3-2.4-4.9-5.8-4.9h-4v10H7.1z"/>
<path class="st6" d="M21.5,264.8v-26h14v3.5H25.3v7.7h10.2v3.5H25.3v7.9h10.2v3.5L21.5,264.8L21.5,264.8z"/>
<path class="st6" d="M49.8,245.5c0-2.4-1.5-3.8-3.7-3.8c-1.8,0-3.5,1.6-3.5,3.6s1.2,2.9,3.8,3.7c5.6,1.8,7.7,3.9,7.7,8.4
	c0,4.5-3.4,7.9-8,7.9s-8-3.3-8-8.2h3.8c0,2.8,1.7,4.7,4.2,4.7s4.2-1.8,4.2-4.4c0-1.9-0.8-3.1-3.6-4.1c-6.4-2.2-7.8-4.3-7.8-8
	c0-4,3.3-7.1,7.3-7.1c4.3,0,7.4,2.7,7.5,7.2L49.8,245.5L49.8,245.5z"/>
<path class="st6" d="M57.3,264.8v-26h14v3.5H61.1v7.7h10.2v3.5H61.1v7.9h10.2v3.5L57.3,264.8L57.3,264.8z"/>
<path class="st6" d="M92.9,264.8l-2.9-7.7h-9.4l-2.9,7.7h-4l9.9-26h3.4l9.9,26H92.9L92.9,264.8z M85.4,243.7L85.4,243.7l-3.4,10h6.7
	C88.8,253.7,85.4,243.7,85.4,243.7z"/>
<path class="st6" d="M112.2,264.8l-8.6-12.1h-0.1v12.1h-3.8v-26h8.3c6.3,0,9,3.3,9,8.7c0,5-3.8,7.6-7.5,7.7l7.3,9.7H112.2
	L112.2,264.8z M106.3,252.2c4.4,0,7-1.7,7-5.1c0-3-2.4-4.9-5.8-4.9h-4v10H106.3z"/>
<path class="st6" d="M144.8,258.4c-2.6,4.5-6.8,6.9-12,6.9c-7.2,0-13.2-6.5-13.2-13.4c0-7.9,6.2-13.6,13.2-13.6
	c4.9,0,9.5,2.2,12.2,7.1h-4.6c-2-2.3-4.3-3.7-7.3-3.7c-5.4,0-9.7,4.6-9.7,9.8c0,5.4,4.1,10.3,9.5,10.3c2.7,0,5.1-1.1,7.2-3.5
	L144.8,258.4L144.8,258.4z"/>
<path class="st6" d="M163,264.8v-11.3h-10.7v11.3h-3.8v-26h3.8V250H163v-11.2h3.8v26H163z"/>
<path class="st6" d="M182.4,264.8v-26h3.8v26H182.4z"/>
<path class="st6" d="M208.2,264.8l-12.9-20.1h-0.1v20.1h-3.8v-26h4.1l12.7,19.8h0.1v-19.8h3.8v26H208.2L208.2,264.8z"/>
<path class="st6" d="M227.1,245.5c0-2.4-1.5-3.8-3.7-3.8c-1.8,0-3.5,1.6-3.5,3.6s1.2,2.9,3.8,3.7c5.6,1.8,7.7,3.9,7.7,8.4
	c0,4.5-3.4,7.9-8,7.9s-7.9-3.3-8-8.2h3.8c0,2.8,1.7,4.7,4.2,4.7s4.2-1.8,4.2-4.4c0-1.9-0.8-3.1-3.6-4.1c-6.4-2.2-7.9-4.3-7.9-8
	c0-4,3.3-7.1,7.3-7.1c4.3,0,7.4,2.7,7.5,7.2L227.1,245.5L227.1,245.5z"/>
<path class="st6" d="M237.6,264.8v-22.6h-5v-3.5h13.8v3.5h-5v22.6H237.6L237.6,264.8z"/>
<path class="st6" d="M249.3,264.8v-26h3.8v26H249.3z"/>
<path class="st6" d="M261,264.8v-22.6h-5v-3.5h13.8v3.5h-5v22.6H261L261,264.8z"/>
<path class="st6" d="M286.3,238.8h3.8v17.8c0,5.5-3.8,8.7-8.7,8.7s-8.7-3.3-8.7-8.7v-17.8h3.8v17.5c0,3.2,1.8,5.5,4.9,5.5
	s4.9-2.3,4.9-5.5L286.3,238.8L286.3,238.8z"/>
<path class="st6" d="M297.9,264.8v-22.6h-5v-3.5h13.8v3.5h-5v22.6H297.9L297.9,264.8z"/>
<path class="st6" d="M309.3,264.8v-26h14v3.5h-10.2v7.7h10.2v3.5h-10.2v7.9h10.2v3.5L309.3,264.8L309.3,264.8z"/>
<path class="st6" d="M50.1,222.2c-0.3,0.7-0.9,2.1-0.9,2.8c0,0.8,0.9,0.7,1.5,0.8v0.4c-0.7,0-1.3-0.1-2-0.1c-0.6,0-1.3,0.1-1.9,0.1
	v-0.4c1-0.1,1.4-0.4,1.8-1.3c0.5-1.2,1-2.3,1.5-3.5l2.8-7.2h0.6l3.7,9.3c0.2,0.5,0.6,1.6,1,2c0.4,0.5,1,0.6,1.6,0.7v0.4
	c-0.9,0-1.7-0.1-2.6-0.1c-0.9,0-1.8,0.1-2.7,0.1v-0.4c0.5,0,1.4,0,1.4-0.7c0-0.5-0.2-1-0.4-1.4l-0.7-1.9h-4.5L50.1,222.2L50.1,222.2
	z M54.6,221.1l-2-5.2l-2,5.2H54.6L54.6,221.1z"/>
<path class="st6" d="M62.5,219.6L62.5,219.6c0.7-1,1.6-1.5,2.8-1.5c2.4,0,4.1,1.8,4.1,4.2c0,2.2-1.7,4.1-4,4.1c-1.1,0-1.8-0.3-2.6-1
	v3.6c0,1.3-0.1,1.8,1.4,1.9v0.4c-0.7,0-1.4-0.1-2-0.1c-0.7,0-1.5,0.1-2.2,0.1v-0.4c1.4-0.1,1.3-0.6,1.3-1.8v-7.2
	c0-0.5,0-1.8-0.1-2.2c-0.2-0.7-0.6-0.6-1.2-0.6v-0.4c0.9-0.1,1.8-0.4,2.7-0.6C62.5,218,62.5,219.6,62.5,219.6z M62.7,223
	c0,0.6,0,1.5,0.4,2c0.4,0.5,1.1,0.7,1.8,0.7c2,0,2.6-1.9,2.6-3.6s-0.5-3.6-2.5-3.6c-0.8,0-1.5,0.4-1.8,1.1c-0.4,0.7-0.4,1.3-0.4,2.1
	L62.7,223L62.7,223z"/>
<path class="st6" d="M73.1,219.6L73.1,219.6c0.7-1,1.6-1.5,2.8-1.5c2.4,0,4.1,1.8,4.1,4.2c0,2.2-1.7,4.1-4,4.1c-1.1,0-1.8-0.3-2.6-1
	v3.6c0,1.3-0.1,1.8,1.4,1.9v0.4c-0.7,0-1.4-0.1-2-0.1c-0.7,0-1.5,0.1-2.2,0.1v-0.4c1.4-0.1,1.3-0.6,1.3-1.8v-7.2
	c0-0.5,0-1.8-0.1-2.2c-0.2-0.7-0.6-0.6-1.2-0.6v-0.4c0.9-0.1,1.8-0.4,2.7-0.6C73.1,218,73.1,219.6,73.1,219.6z M73.3,223
	c0,0.6,0,1.5,0.4,2c0.4,0.5,1.1,0.7,1.8,0.7c2,0,2.6-1.9,2.6-3.6s-0.5-3.6-2.5-3.6c-0.8,0-1.5,0.4-1.8,1.1c-0.4,0.7-0.4,1.3-0.4,2.1
	L73.3,223L73.3,223z"/>
<path class="st6" d="M86,221.1c0.2-0.1,0.2-0.3,0.2-0.5c0-1.2-0.1-2.1-1.6-2.1c-0.9,0-1.7,0.1-1.7,1.1c0,0.4-0.3,0.8-0.7,0.8
	c-0.4,0-0.7-0.3-0.7-0.7c0-1.4,2.4-1.6,3.4-1.6c2,0,3,0.5,3,2.6v3c0,0.5-0.1,1.8,0.6,1.8c0.4,0,0.6-0.3,0.8-0.6l0.3,0.2
	c-0.3,0.6-1,1.2-1.7,1.2c-0.8,0-1.4-0.6-1.6-1.3c-0.9,0.7-1.9,1.3-3.1,1.3c-1,0-1.9-0.6-1.9-1.6c0-1.5,1.7-2.2,2.9-2.7L86,221.1
	L86,221.1z M86.2,221.6c-1.1,0.5-3.2,1.2-3.2,2.7c0,0.7,0.4,1.3,1.2,1.3s1.5-0.6,2-1.1L86.2,221.6L86.2,221.6z"/>
<path class="st6" d="M92.8,223.9c0,1.2-0.2,1.8,1.3,1.9v0.4c-0.7,0-1.4-0.1-2.1-0.1c-0.7,0-1.3,0.1-2,0.1v-0.4
	c1.4-0.1,1.3-0.5,1.3-1.7v-7c0-0.5,0-1.6-0.2-2c-0.2-0.5-0.8-0.4-1.2-0.5v-0.4l2.9-0.6L92.8,223.9L92.8,223.9z"/>
<path class="st6" d="M99.9,221.1c0.2-0.1,0.2-0.3,0.2-0.5c0-1.2-0.1-2.1-1.6-2.1c-0.9,0-1.7,0.1-1.7,1.1c0,0.4-0.3,0.8-0.7,0.8
	c-0.4,0-0.7-0.3-0.7-0.7c0-1.4,2.4-1.6,3.4-1.6c2,0,3,0.5,3,2.6v3c0,0.5-0.1,1.8,0.6,1.8c0.4,0,0.6-0.3,0.8-0.6l0.3,0.2
	c-0.3,0.6-1,1.2-1.7,1.2c-0.8,0-1.4-0.6-1.6-1.3c-0.9,0.7-1.9,1.3-3.1,1.3c-1,0-1.9-0.6-1.9-1.6c0-1.5,1.7-2.2,2.9-2.7L99.9,221.1
	L99.9,221.1z M100.1,221.6c-1.1,0.5-3.2,1.2-3.2,2.7c0,0.7,0.4,1.3,1.2,1.3s1.5-0.6,2-1.1L100.1,221.6L100.1,221.6z"/>
<path class="st6" d="M111.3,224.9c-0.8,0.9-2,1.4-3.2,1.4c-2.3,0-3.9-1.6-3.9-3.9c0-2.6,1.9-4.4,4.5-4.4c0.7,0,2.4,0.2,2.4,1.2
	c0,0.3-0.3,0.7-0.6,0.7c-0.4,0-0.7-0.4-0.8-0.7c-0.2-0.6-0.4-0.7-1-0.7c-2,0-2.6,2-2.6,3.6c0,1.8,0.6,3.6,2.6,3.6
	c0.9,0,1.7-0.5,2.3-1.2L111.3,224.9L111.3,224.9z"/>
<path class="st6" d="M115.3,219.6L115.3,219.6c0.7-1,1.7-1.6,2.9-1.6c1.7,0,2.8,0.8,2.8,2.6v3.3c0,1.2-0.2,1.8,1.3,1.9v0.4
	c-0.7,0-1.4-0.1-2.1-0.1c-0.7,0-1.3,0.1-2,0.1v-0.4c1.4-0.1,1.3-0.5,1.3-1.7v-2.7c0-1.2-0.1-2.7-1.7-2.7c-0.8,0-1.7,0.6-2.1,1.3
	c-0.3,0.6-0.3,1.3-0.3,2v2c0,1.2-0.2,1.8,1.3,1.9v0.4c-0.7,0-1.3-0.1-2-0.1c-0.7,0-1.4,0.1-2.1,0.1v-0.4c1.4-0.1,1.3-0.5,1.3-1.7v-7
	c0-0.5,0-1.6-0.2-2c-0.2-0.5-0.8-0.4-1.2-0.5v-0.4l2.9-0.6L115.3,219.6L115.3,219.6z"/>
<path class="st6" d="M126.2,218v5.9c0,1.2-0.2,1.8,1.3,1.9v0.4c-0.6,0-1.3-0.1-2-0.1c-0.7,0-1.4,0.1-2.2,0.1v-0.4
	c1.4-0.1,1.2-0.5,1.3-1.7v-2.6c0-0.4,0-1.8-0.1-2c-0.1-0.5-0.9-0.4-1.3-0.4v-0.4L126.2,218L126.2,218z M124.2,214.8c0-0.6,0.4-1,1-1
	s1,0.4,1,1s-0.4,1-0.9,1C124.6,215.8,124.2,215.4,124.2,214.8L124.2,214.8z"/>
<path class="st6" d="M133.3,221.1c0.2-0.1,0.1-0.3,0.1-0.5c0-1.2-0.1-2.1-1.6-2.1c-0.9,0-1.7,0.1-1.7,1.1c0,0.4-0.3,0.8-0.7,0.8
	c-0.4,0-0.7-0.3-0.7-0.7c0-1.4,2.4-1.6,3.4-1.6c2,0,3,0.5,3,2.6v3c0,0.5-0.1,1.8,0.6,1.8c0.4,0,0.6-0.3,0.8-0.6l0.4,0.2
	c-0.3,0.6-1,1.2-1.6,1.2c-0.8,0-1.4-0.6-1.6-1.3c-0.9,0.7-1.9,1.3-3.1,1.3c-1,0-1.9-0.6-1.9-1.6c0-1.5,1.7-2.2,2.9-2.7L133.3,221.1
	L133.3,221.1z M133.5,221.6c-1.1,0.5-3.2,1.2-3.2,2.7c0,0.7,0.4,1.3,1.2,1.3s1.5-0.6,2-1.1V221.6L133.5,221.6z"/>
<path class="st6" d="M145.8,223.9c0,1.2-0.1,1.8,1.3,1.9v0.4c-0.7,0-1.3-0.1-2-0.1c-0.7,0-1.4,0.1-2.1,0.1v-0.4
	c1.4-0.1,1.3-0.5,1.3-1.7v-2.4c0-1.3,0.1-3.1-1.7-3.1c-1.4,0-2.4,1.1-2.4,2.5v2.8c0,1.2-0.2,1.8,1.3,1.9v0.4c-0.7,0-1.3-0.1-2-0.1
	c-0.7,0-1.4,0.1-2.1,0.1v-0.4c1.4-0.1,1.3-0.5,1.3-1.7v-2.3c0-0.5,0-1.8-0.1-2.2c-0.1-0.7-0.6-0.6-1.2-0.6v-0.4
	c0.9-0.1,1.6-0.4,2.5-0.6l0.2,1.7h0c0.6-1.1,1.6-1.7,2.9-1.7c1.7,0,2.7,0.8,2.7,2.5L145.8,223.9L145.8,223.9z"/>
<path class="st6" d="M153.3,222.4h0.4c0.4,1.9,1.4,3.4,3.5,3.4c1.4,0,2.6-0.8,2.6-2.3c0-1.7-1.4-2.3-2.8-2.9
	c-1.7-0.6-3.4-1.5-3.4-3.6s1.6-3.3,3.6-3.3c1,0,1.9,0.4,2.8,0.9l0.4-0.7h0.2l0.1,3.2h-0.4c-0.4-1.5-1.3-2.9-3.1-2.9
	c-1.2,0-2.1,0.8-2.1,1.9c0,1.4,1.3,1.9,2.4,2.4c1.9,0.8,4,1.7,4,4.1s-2.2,3.6-4.4,3.6c-1.2,0-2.2-0.4-3.2-1.1l-0.4,0.8h-0.2V222.4z"
	/>
<path class="st6" d="M162.9,218.9v-0.3c0.9-0.5,1.8-1.3,2.2-2.3h0.3v2.1h2.1v0.5h-2.1v5.2c0,0.8,0.2,1.7,1.1,1.7
	c0.6,0,1-0.4,1.3-0.8l0.3,0.2c-0.3,0.9-1.2,1.2-2.1,1.2c-1.3,0-2.2-0.5-2.2-1.9v-5.6L162.9,218.9L162.9,218.9z"/>
<path class="st6" d="M173.3,221.1c0.2-0.1,0.1-0.3,0.1-0.5c0-1.2-0.1-2.1-1.6-2.1c-0.9,0-1.7,0.1-1.7,1.1c0,0.4-0.3,0.8-0.7,0.8
	c-0.4,0-0.7-0.3-0.7-0.7c0-1.4,2.4-1.6,3.4-1.6c2,0,3,0.5,3,2.6v3c0,0.5-0.1,1.8,0.6,1.8c0.4,0,0.6-0.3,0.8-0.6l0.4,0.2
	c-0.3,0.6-1,1.2-1.6,1.2c-0.8,0-1.4-0.6-1.6-1.3c-0.9,0.7-1.9,1.3-3.1,1.3c-1,0-1.9-0.6-1.9-1.6c0-1.5,1.7-2.2,2.9-2.7L173.3,221.1
	L173.3,221.1z M173.4,221.6c-1.1,0.5-3.2,1.2-3.2,2.7c0,0.7,0.4,1.3,1.2,1.3s1.5-0.6,2-1.1V221.6L173.4,221.6z"/>
<path class="st6" d="M177.5,218.9v-0.3c0.9-0.5,1.8-1.3,2.2-2.3h0.3v2.1h2.1v0.5H180v5.2c0,0.8,0.2,1.7,1.1,1.7c0.6,0,1-0.4,1.3-0.8
	l0.3,0.2c-0.3,0.9-1.2,1.2-2.1,1.2c-1.3,0-2.2-0.5-2.2-1.9v-5.6L177.5,218.9L177.5,218.9z"/>
<path class="st6" d="M190.7,224.8c-0.9,1.1-1.9,1.6-3.3,1.6c-2.3,0-4.1-1.6-4.1-3.9s1.7-4.4,4.1-4.4c1.8,0,3.5,1,3.5,3
	c0,0.2-0.3,0.2-0.5,0.2h-5.3l-0.1,0.9c0,1.7,0.9,3.7,2.9,3.7c0.9,0,1.8-0.6,2.3-1.4L190.7,224.8L190.7,224.8z M188.3,220.7
	c0.3,0,0.9,0.1,0.9-0.4c0-1.1-0.6-1.9-1.8-1.9c-1.4,0-1.9,1.1-2.1,2.2L188.3,220.7L188.3,220.7z"/>
<path class="st6" d="M208.5,221.3c0,3.3-1.3,5.1-4.8,5.1c-3.3,0-4.9-1.2-4.9-4.5v-4.4c0-0.6,0-1.9-0.2-2.4c-0.2-0.6-1-0.6-1.6-0.6
	V214c0.9,0,1.7,0.1,2.6,0.1c0.9,0,1.9-0.1,2.8-0.1v0.4c-0.6,0-1.4,0-1.6,0.6c-0.2,0.5-0.2,1.9-0.2,2.4v4.5c0,2.4,0.9,3.7,3.4,3.7
	s3.8-1.3,3.8-3.8v-4c0-0.6,0-2.1-0.2-2.6c-0.3-0.8-1-0.8-1.7-0.8V214c0.7,0,1.4,0.1,2.1,0.1c0.7,0,1.4-0.1,2.1-0.1v0.4
	c-0.6,0-1.2,0-1.5,0.7c-0.3,0.7-0.3,2.1-0.3,2.8L208.5,221.3L208.5,221.3z"/>
<path class="st6" d="M219.9,223.9c0,1.2-0.1,1.8,1.3,1.9v0.4c-0.7,0-1.3-0.1-2-0.1c-0.7,0-1.4,0.1-2.1,0.1v-0.4
	c1.4-0.1,1.3-0.5,1.3-1.7v-2.4c0-1.3,0.1-3.1-1.7-3.1c-1.4,0-2.4,1.1-2.4,2.5v2.8c0,1.2-0.2,1.8,1.3,1.9v0.4c-0.7,0-1.3-0.1-2-0.1
	c-0.7,0-1.4,0.1-2.1,0.1v-0.4c1.4-0.1,1.3-0.5,1.3-1.7v-2.3c0-0.5,0-1.8-0.1-2.2c-0.1-0.7-0.6-0.6-1.2-0.6v-0.4
	c0.9-0.1,1.6-0.4,2.5-0.6l0.2,1.7h0c0.6-1.1,1.6-1.7,2.9-1.7c1.7,0,2.7,0.8,2.7,2.5L219.9,223.9L219.9,223.9z"/>
<path class="st6" d="M225.2,218v5.9c0,1.2-0.2,1.8,1.3,1.9v0.4c-0.6,0-1.3-0.1-2-0.1c-0.7,0-1.4,0.1-2.1,0.1v-0.4
	c1.4-0.1,1.2-0.5,1.3-1.7v-2.6c0-0.4,0-1.8-0.1-2c-0.1-0.5-0.9-0.4-1.3-0.4v-0.4L225.2,218L225.2,218z M223.2,214.8c0-0.6,0.4-1,1-1
	s1,0.4,1,1s-0.4,1-0.9,1C223.7,215.8,223.2,215.4,223.2,214.8L223.2,214.8z"/>
<path class="st6" d="M228,219.9c-0.3-0.7-0.4-1.3-1.3-1.4v-0.4c0.7,0,1.3,0.1,2,0.1c0.6,0,1.2,0,1.9-0.1v0.4c-0.4,0-1.1,0.1-1.1,0.6
	c0,0.3,0.2,0.7,0.2,0.9l1.8,4.4c0.3-1,1.8-4.3,1.8-5.2c0-0.6-0.6-0.7-1-0.8v-0.4c0.5,0,0.9,0.1,1.4,0.1c0.4,0,0.9-0.1,1.3-0.1v0.4
	c-0.3,0.1-0.5,0.2-0.7,0.4c-0.3,0.4-0.8,1.6-0.9,2.1l-2.2,5.3h-0.4L228,219.9L228,219.9z"/>
<path class="st6" d="M242.8,224.8c-0.9,1.1-1.9,1.6-3.3,1.6c-2.3,0-4.1-1.6-4.1-3.9s1.7-4.4,4.1-4.4c1.8,0,3.5,1,3.5,3
	c0,0.2-0.3,0.2-0.5,0.2h-5.3l-0.1,0.9c0,1.7,0.9,3.7,2.9,3.7c0.9,0,1.8-0.6,2.3-1.4L242.8,224.8L242.8,224.8z M240.4,220.7
	c0.3,0,0.9,0.1,0.9-0.4c0-1.1-0.6-1.9-1.8-1.9c-1.4,0-1.9,1.1-2.1,2.2L240.4,220.7L240.4,220.7z"/>
<path class="st6" d="M245.8,221.8c0-0.5,0-1.8-0.1-2.2c-0.2-0.7-0.6-0.6-1.2-0.6v-0.4c0.9-0.1,1.7-0.4,2.5-0.6
	c0.2,0.5,0.2,1.2,0.2,1.9h0c0.5-1.1,1.4-1.9,2.7-1.9c0.6,0,1.3,0.3,1.3,0.9c0,0.4-0.3,0.7-0.6,0.7c-0.8,0-0.6-0.9-1.3-0.9
	c-0.6,0-1.2,0.5-1.4,0.9c-0.4,0.8-0.4,1.6-0.4,2.5v1.8c0,1.3-0.1,1.8,1.4,1.9v0.4c-0.7,0-1.4-0.1-2.1-0.1c-0.7,0-1.4,0.1-2.1,0.1
	v-0.4c1.4-0.1,1.3-0.5,1.3-1.7L245.8,221.8L245.8,221.8z"/>
<path class="st6" d="M252,226.2h-0.2l-0.1-2.6h0.4c0.3,1.2,0.9,2.3,2.3,2.3c0.8,0,1.5-0.4,1.5-1.3c0-1-1.1-1.5-1.9-1.9
	c-1.1-0.6-2.2-1.2-2.2-2.5c0-1.3,1-2.2,2.3-2.2c0.6,0,1.3,0.2,1.8,0.5l0.4-0.4h0.2l0,2.3h-0.4c-0.3-0.9-0.7-1.9-1.9-1.9
	c-0.6,0-1.2,0.4-1.2,1c0,0.9,1,1.3,1.7,1.7c1.3,0.7,2.4,1.1,2.4,2.8c0,1.5-1.3,2.4-2.7,2.4c-0.7,0-1.5-0.2-2-0.7L252,226.2
	L252,226.2z"/>
<path class="st6" d="M261.1,218v5.9c0,1.2-0.2,1.8,1.3,1.9v0.4c-0.6,0-1.3-0.1-2-0.1c-0.7,0-1.4,0.1-2.1,0.1v-0.4
	c1.4-0.1,1.2-0.5,1.3-1.7v-2.6c0-0.4,0-1.8-0.1-2c-0.1-0.5-0.9-0.4-1.3-0.4v-0.4L261.1,218L261.1,218z M259.1,214.8c0-0.6,0.4-1,1-1
	s1,0.4,1,1s-0.4,1-0.9,1C259.6,215.8,259.1,215.4,259.1,214.8L259.1,214.8z"/>
<path class="st6" d="M263.7,218.9v-0.3c0.9-0.5,1.8-1.3,2.2-2.3h0.3v2.1h2.1v0.5h-2.1v5.2c0,0.8,0.2,1.7,1.1,1.7
	c0.6,0,1-0.4,1.3-0.8l0.3,0.2c-0.3,0.9-1.2,1.2-2.1,1.2c-1.3,0-2.2-0.5-2.2-1.9v-5.6L263.7,218.9L263.7,218.9z"/>
<path class="st6" d="M269.9,220c-0.1-0.3-0.3-0.8-0.5-1c-0.2-0.2-0.6-0.4-0.8-0.4v-0.4c0.6,0,1.2,0.1,1.9,0.1c0.7,0,1.4-0.1,2.1-0.1
	v0.4c-0.3,0.1-1.1,0.1-1.1,0.6c0,0.5,0.5,1.7,0.8,2.2l1.2,2.8l1.4-3.3c0.2-0.4,0.5-1.2,0.5-1.7c0-0.5-0.6-0.6-1-0.6v-0.4
	c0.5,0,0.9,0.1,1.4,0.1c0.4,0,0.8-0.1,1.2-0.1v0.4c-0.8,0-0.8,0.6-1.1,1.2l-0.2,0.5l-3.8,8.8c-0.2,0.6-0.8,2-1.5,2
	c-0.3,0.1-0.5-0.2-0.5-0.4c0-0.8,1-0.8,1.4-1.4c0.3-0.4,0.6-1.2,0.8-1.7l0.7-1.6L269.9,220L269.9,220z"/>
</svg>
